<svg width="99" height="46" viewBox="0 0 99 46" fill="none" xmlns="http://www.w3.org/2000/svg">
<path d="M23.0415 0C13.7996 0 8.22911 0.508368 1.07611 1.90637L1.70912 18.8731C5.76037 17.2845 11.9006 16.2677 18.104 16.2677C20.7627 16.2677 21.9021 16.4584 21.9021 16.9667C21.9021 17.6022 21.0159 17.7928 18.9902 18.1106C6.20348 20.2711 0 25.5454 0 37.1743V45.753H42.6648V29.7394H21.2691C21.2691 28.0873 23.0415 27.706 26.7129 27.3247C36.9677 26.2444 43.9308 23.7026 43.9308 13.4717C43.9308 3.87629 37.9805 0 23.0415 0Z" fill="white"/>
<path d="M99 1.27092H75.3255V15.3781H70.5146V1.27092H46.8401V45.753H70.5146V31.6458H75.3255V45.753H99V1.27092Z" fill="white"/>
</svg>
